<?xml version="1.0" encoding="UTF-8"?> <svg xmlns="http://www.w3.org/2000/svg" xmlns:xlink="http://www.w3.org/1999/xlink" width="391px" height="38px" viewBox="0 0 391 38" version="1.1"><!-- Generator: Sketch 62 (91390) - https://sketch.com --><title>logo-fullcolor</title><desc>Created with Sketch.</desc><g id="Symbols" stroke="none" stroke-width="1" fill="none" fill-rule="evenodd"><g id="logo-fullcolor"><path d="M268.245507,24.1277055 C270.579816,24.1277055 272.894124,25.9772539 272.894124,29.2049791 C272.894124,32.4134816 270.59815,34.3006395 268.245507,34.3006395 C266.43873,34.3006395 265.271993,33.3194511 264.518613,32.2245987 L264.518613,37.1129894 L263.070192,37.1129894 L263.070192,24.3349753 L264.518613,24.3349753 L264.518613,26.2973519 C265.310328,25.1281164 266.457065,24.1277055 268.245507,24.1277055 Z M207.962668,20.6551011 C209.806947,20.6551011 211.16203,21.9764459 211.16203,23.6554981 C211.16203,25.3729956 209.976124,26.4302386 208.056841,27.1097157 L211.068691,30.1861674 C211.65206,29.3361942 212.178758,28.336619 212.648787,27.2417666 L213.872195,27.8075796 C213.288826,29.0537056 212.686289,30.1861674 211.972079,31.1297463 L214.267219,33.4891115 L213.138817,34.3574715 L211.068691,32.2245987 C209.863617,33.5267209 208.470199,34.2814169 206.758428,34.2814169 C204.386617,34.2814169 202.618176,32.7904118 202.618176,30.5639333 C202.618176,28.7896038 203.78408,27.5242552 205.79837,26.7319498 C204.894981,25.6747069 204.48079,24.8640146 204.48079,23.8067716 C204.48079,22.050829 205.873374,20.6551011 207.962668,20.6551011 Z M377.127973,24.1277055 C380.007315,24.1277055 381.664083,26.4302386 381.664083,29.2985848 C381.664083,29.4314714 381.664083,29.5819092 381.644915,29.7515695 L373.927778,29.7515695 C374.136124,31.8660554 375.642049,33.0553493 377.35382,33.0553493 C378.690568,33.0553493 379.631459,32.5079231 380.422341,31.6771725 L381.325729,32.4887005 C380.345669,33.5835529 379.160597,34.3198621 377.316318,34.3198621 C374.643655,34.3198621 372.461022,32.2622081 372.461022,29.2233659 C372.461022,26.3926292 374.436976,24.1277055 377.127973,24.1277055 Z M367.545723,24.1277055 C369.390002,24.1277055 370.539239,24.9016241 371.442627,25.8644256 L370.481735,26.8832233 C369.710021,26.0716953 368.844135,25.4106051 367.527388,25.4106051 C365.551435,25.4106051 364.046343,27.0913289 364.046343,29.2049791 C364.046343,31.3378518 365.588937,33.0177399 367.620727,33.0177399 C368.864136,33.0177399 369.822528,32.394259 370.594242,31.5635084 L371.516798,32.4318685 C370.539239,33.5267209 369.371667,34.3198621 367.545723,34.3198621 C364.703883,34.3198621 362.557919,31.9981063 362.557919,29.2425885 C362.557919,26.4686838 364.703883,24.1277055 367.545723,24.1277055 Z M296.855583,24.1277055 C299.734925,24.1277055 301.39086,26.4302386 301.39086,29.2985848 C301.39086,29.4314714 301.39086,29.5819092 301.372525,29.7515695 L293.656222,29.7515695 C293.862901,31.8660554 295.368826,33.0553493 297.08143,33.0553493 C298.417345,33.0553493 299.358236,32.5079231 300.149117,31.6771725 L301.052506,32.4887005 C300.073279,33.5835529 298.888207,34.3198621 297.043928,34.3198621 C294.371265,34.3198621 292.187799,32.2622081 292.187799,29.2233659 C292.187799,26.3926292 294.164586,24.1277055 296.855583,24.1277055 Z M227.328848,20.6551011 C229.718994,20.6551011 231.149081,21.5042385 232.466661,22.7495287 L231.450766,23.8443811 C230.340698,22.7871381 229.098122,22.0324421 227.310514,22.0324421 C224.392836,22.0324421 222.210203,24.3918073 222.210203,27.468259 C222.210203,30.5447107 224.41117,32.9416853 227.310514,32.9416853 C229.11729,32.9416853 230.303196,32.2438213 231.563273,31.0361406 L232.541666,31.9981063 C231.168249,33.39467 229.662323,34.3198621 227.272178,34.3198621 C223.47028,34.3198621 220.666776,31.3186292 220.666776,27.5058684 C220.666776,23.730717 223.451945,20.6551011 227.328848,20.6551011 Z M345.620221,24.1277055 C348.499563,24.1277055 350.155497,26.4302386 350.155497,29.2985848 C350.155497,29.4314714 350.155497,29.5819092 350.137162,29.7515695 L342.420026,29.7515695 C342.626705,31.8660554 344.13263,33.0553493 345.845234,33.0553493 C347.181149,33.0553493 348.12204,32.5079231 348.912921,31.6771725 L349.816309,32.4887005 C348.83875,33.5835529 347.652011,34.3198621 345.807732,34.3198621 C343.135069,34.3198621 340.952436,32.2622081 340.952436,29.2233659 C340.952436,26.3926292 342.92839,24.1277055 345.620221,24.1277055 Z M238.622036,24.1277055 C241.53888,24.1277055 243.684011,26.4302386 243.684011,29.2049791 C243.684011,31.9788837 241.520546,34.3198621 238.5837,34.3198621 C235.666856,34.3198621 233.54006,32.0164932 233.54006,29.2425885 C233.54006,26.4686838 235.686024,24.1277055 238.622036,24.1277055 Z M122.514963,24.1277055 C125.431807,24.1277055 127.576938,26.4302386 127.576938,29.2049791 C127.576938,31.9788837 125.41264,34.3198621 122.476627,34.3198621 C119.559783,34.3198621 117.432987,32.0164932 117.432987,29.2425885 C117.432987,26.4686838 119.578118,24.1277055 122.514963,24.1277055 Z M331.373519,24.1277055 C333.216965,24.1277055 334.364535,24.9016241 335.267923,25.8644256 L334.307865,26.8832233 C333.536151,26.0716953 332.670265,25.4106051 331.353518,25.4106051 C329.377564,25.4106051 327.871639,27.0913289 327.871639,29.2049791 C327.871639,31.3378518 329.415067,33.0177399 331.447691,33.0177399 C332.690266,33.0177399 333.650325,32.394259 334.422038,31.5635084 L335.342928,32.4318685 C334.364535,33.5267209 333.197797,34.3198621 331.373519,34.3198621 C328.530846,34.3198621 326.385716,31.9981063 326.385716,29.2425885 C326.385716,26.4686838 328.530846,24.1277055 331.373519,24.1277055 Z M180.165142,24.1277055 C183.081986,24.1277055 185.227117,26.4302386 185.227117,29.2049791 C185.227117,31.9788837 183.062818,34.3198621 180.126806,34.3198621 C177.209962,34.3198621 175.083165,32.0164932 175.083165,29.2425885 C175.083165,26.4686838 177.228296,24.1277055 180.165142,24.1277055 Z M157.690439,24.2029243 C160.343934,24.2029243 161.831525,25.5627143 161.831525,28.1285135 L161.831525,34.0933697 L160.438107,34.0933697 L160.438107,32.6207514 C159.760565,33.5083341 158.63133,34.3006395 156.918726,34.3006395 C155.111949,34.3006395 153.286838,33.2818417 153.286838,31.2425746 C153.286838,29.1665339 154.980274,28.0725172 157.445424,28.0725172 C158.688,28.0725172 159.573054,28.2421775 160.438107,28.4878925 L160.438107,28.1477361 C160.438107,26.3926292 159.365541,25.4866597 157.539597,25.4866597 C156.392027,25.4866597 155.488638,25.7883709 154.58525,26.2037462 L154.152724,25.0144524 C155.225289,24.5238582 156.278687,24.2029243 157.690439,24.2029243 Z M276.300164,24.3349753 L276.300164,30.0348939 C276.300164,31.8468328 277.279391,32.9801305 278.991995,32.9801305 C280.647929,32.9801305 281.909673,31.7523914 281.909673,29.9212298 L281.909673,24.3349753 L283.338927,24.3349753 L283.338927,34.0933697 L281.909673,34.0933697 L281.909673,32.394259 C281.249633,33.451502 280.252905,34.3006395 278.57697,34.3006395 C276.22516,34.3006395 274.851743,32.7151929 274.851743,30.3942729 L274.851743,24.3349753 L276.300164,24.3349753 Z M386.612718,24.1653149 C387.799457,24.1653149 389.116203,24.5806902 390.113764,25.2409447 L389.454557,26.3357971 C388.551169,25.7507615 387.516106,25.3913825 386.575215,25.3913825 C385.427645,25.3913825 384.693434,25.9956407 384.693434,26.8080045 L384.693434,26.8456139 C384.693434,27.7699702 385.897674,28.1285135 387.19692,28.525502 C388.702845,28.9784867 390.320443,29.5635223 390.320443,31.3186292 L390.320443,31.3562387 C390.320443,33.2057871 388.797017,34.2814169 386.858566,34.2814169 C385.465148,34.2814169 383.92172,33.7348264 382.829987,32.8472438 L383.564199,31.8092234 C384.618429,32.6023646 385.786001,33.0553493 386.933571,33.0553493 C388.100308,33.0553493 388.947027,32.4510911 388.947027,31.5075122 L388.947027,31.4699027 C388.947027,30.4878786 387.799457,30.1109485 386.519379,29.7515695 C384.994286,29.3178074 383.300016,28.7896038 383.300016,26.9960516 L383.300016,26.959278 C383.300016,25.2793899 384.693434,24.1653149 386.612718,24.1653149 Z M319.741977,20.6927105 C321.660428,20.6927105 323.034678,21.2401367 324.370593,22.3157665 L323.504707,23.467451 C322.282132,22.4662043 321.058724,22.0324421 319.704475,22.0324421 C317.990204,22.0324421 316.899304,22.976021 316.899304,24.1837018 C316.899304,25.4490503 317.576846,26.1469142 320.475355,26.770395 C323.410534,27.4114269 324.76645,28.4878925 324.76645,30.5254881 C324.76645,32.8096344 322.884669,34.2814169 320.267009,34.2814169 C318.179382,34.2814169 316.466778,33.5835529 314.885848,32.1677667 L315.807571,31.0729143 C317.180988,32.3190402 318.499402,32.9416853 320.324513,32.9416853 C322.093787,32.9416853 323.260525,32.0164932 323.260525,30.6767616 C323.260525,29.4314714 322.601318,28.7327717 319.834483,28.1477361 C316.805132,27.4866458 315.411714,26.5054575 315.411714,24.3157527 C315.411714,22.2021025 317.238492,20.6927105 319.741977,20.6927105 Z M287.988376,21.3905745 L287.988376,24.3349753 L291.075231,24.3349753 L291.075231,25.6187106 L287.988376,25.6187106 L287.988376,31.3186292 C287.988376,32.5079231 288.64675,32.9416853 289.625976,32.9416853 C290.115173,32.9416853 290.529365,32.8472438 291.037729,32.6023646 L291.037729,33.8476547 C290.529365,34.1117565 289.983498,34.26303 289.286789,34.26303 C287.725027,34.26303 286.539122,33.4891115 286.539122,31.5075122 L286.539122,25.6187106 L285.184039,25.6187106 L285.184039,24.3349753 L286.539122,24.3349753 L286.539122,21.3905745 L287.988376,21.3905745 Z M166.218459,21.3905745 L166.218459,24.3349753 L169.30448,24.3349753 L169.30448,25.6187106 L166.218459,25.6187106 L166.218459,31.3186292 C166.218459,32.5079231 166.876832,32.9416853 167.856058,32.9416853 C168.345255,32.9416853 168.759447,32.8472438 169.266978,32.6023646 L169.266978,33.8476547 C168.759447,34.1117565 168.21358,34.26303 167.516871,34.26303 C165.955109,34.26303 164.769204,33.4891115 164.769204,31.5075122 L164.769204,25.6187106 L163.414121,25.6187106 L163.414121,24.3349753 L164.769204,24.3349753 L164.769204,21.3905745 L166.218459,21.3905745 Z M115.362861,20.2397258 C116.039569,20.2397258 116.491263,20.3149447 116.962958,20.484605 L116.962958,21.7491177 C116.435426,21.5978442 116.039569,21.5042385 115.550372,21.5042385 C114.42197,21.5042385 113.856936,22.1837156 113.856936,23.5802793 L113.856936,24.3734204 L116.942957,24.3734204 L116.942957,25.6187106 L113.876104,25.6187106 L113.876104,34.0933697 L112.426015,34.0933697 L112.426015,25.6187106 L111.090101,25.6187106 L111.090101,24.3541979 L112.426015,24.3541979 L112.426015,23.5050604 C112.426015,21.3721876 113.498581,20.2397258 115.362861,20.2397258 Z M147.828172,24.1277055 C150.067475,24.1277055 151.441725,25.6370974 151.441725,28.0532946 L151.441725,34.0933697 L149.991637,34.0933697 L149.991637,28.3926153 C149.991637,26.5054575 149.05158,25.4490503 147.469817,25.4490503 C146.002227,25.4490503 144.778819,26.5430669 144.778819,28.4686699 L144.778819,34.0933697 L143.348732,34.0933697 L143.348732,28.3550059 C143.348732,26.5246801 142.388674,25.4490503 140.845246,25.4490503 C139.301819,25.4490503 138.135081,26.7319498 138.135081,28.525502 L138.135081,34.0933697 L136.68666,34.0933697 L136.68666,24.3349753 L138.135081,24.3349753 L138.135081,25.9772539 C138.775954,25.0144524 139.641006,24.1277055 141.277773,24.1277055 C142.859536,24.1277055 143.875431,24.9768429 144.40213,26.0716953 C145.098839,24.9960655 146.134735,24.1277055 147.828172,24.1277055 Z M192.058366,24.1277055 C194.411009,24.1277055 195.78526,25.7123163 195.78526,28.0349078 L195.78526,34.0933697 L194.336005,34.0933697 L194.336005,28.3926153 C194.336005,26.5806763 193.357612,25.4490503 191.645008,25.4490503 C189.969906,25.4490503 188.72733,26.6759536 188.72733,28.5062794 L188.72733,34.0933697 L187.278908,34.0933697 L187.278908,24.3349753 L188.72733,24.3349753 L188.72733,26.0340859 C189.368202,24.9768429 190.383264,24.1277055 192.058366,24.1277055 Z M97.8026244,20.8807577 L97.8026244,34.0933697 L96.3158672,34.0933697 L96.3158672,20.8807577 L97.8026244,20.8807577 Z M308.787143,24.1653149 L308.787143,25.7323747 L308.674637,25.7323747 C306.54784,25.7323747 304.816068,27.2609892 304.816068,30.2045542 L304.816068,34.0933697 L303.367647,34.0933697 L303.367647,24.3349753 L304.816068,24.3349753 L304.816068,26.8832233 C305.531112,25.2601673 306.943698,24.090096 308.787143,24.1653149 Z M172.880531,24.3349753 L172.880531,34.0933697 L171.43211,34.0933697 L171.43211,24.3349753 L172.880531,24.3349753 Z M105.632268,24.1277055 C107.984911,24.1277055 109.359162,25.7123163 109.359162,28.0349078 L109.359162,34.0933697 L107.909907,34.0933697 L107.909907,28.3926153 C107.909907,26.5806763 106.931514,25.4490503 105.21891,25.4490503 C103.543807,25.4490503 102.301232,26.6759536 102.301232,28.5062794 L102.301232,34.0933697 L100.85281,34.0933697 L100.85281,24.3349753 L102.301232,24.3349753 L102.301232,26.0340859 C102.941271,24.9768429 103.957166,24.1277055 105.632268,24.1277055 Z M256.877315,24.1277055 C259.117451,24.1277055 260.490868,25.6370974 260.490868,28.0532946 L260.490868,34.0933697 L259.041613,34.0933697 L259.041613,28.3926153 C259.041613,26.5054575 258.100723,25.4490503 256.519793,25.4490503 C255.052203,25.4490503 253.827962,26.5430669 253.827962,28.4686699 L253.827962,34.0933697 L252.397875,34.0933697 L252.397875,28.3550059 C252.397875,26.5246801 251.43865,25.4490503 249.894389,25.4490503 C248.351795,25.4490503 247.185058,26.7319498 247.185058,28.525502 L247.185058,34.0933697 L245.735803,34.0933697 L245.735803,24.3349753 L247.185058,24.3349753 L247.185058,25.9772539 C247.825097,25.0144524 248.690149,24.1277055 250.327749,24.1277055 C251.908679,24.1277055 252.924574,24.9768429 253.452106,26.0716953 C254.148815,24.9960655 255.183878,24.1277055 256.877315,24.1277055 Z M356.911742,24.1277055 C359.263552,24.1277055 360.637802,25.7123163 360.637802,28.0349078 L360.637802,34.0933697 L359.188547,34.0933697 L359.188547,28.3926153 C359.188547,26.5806763 358.210988,25.4490503 356.498383,25.4490503 C354.823281,25.4490503 353.579872,26.6759536 353.579872,28.5062794 L353.579872,34.0933697 L352.131451,34.0933697 L352.131451,24.3349753 L353.579872,24.3349753 L353.579872,26.0340859 C354.221578,24.9768429 355.23664,24.1277055 356.911742,24.1277055 Z M135.04906,24.1653149 L135.04906,25.7323747 L134.93572,25.7323747 C132.808924,25.7323747 131.077151,27.2609892 131.077151,30.2045542 L131.077151,34.0933697 L129.62873,34.0933697 L129.62873,24.3349753 L131.077151,24.3349753 L131.077151,26.8832233 C131.793028,25.2601673 133.203948,24.090096 135.04906,24.1653149 Z M338.749802,24.3349753 L338.749802,34.0933697 L337.30138,34.0933697 L337.30138,24.3349753 L338.749802,24.3349753 Z M157.596267,29.148147 C155.770322,29.148147 154.754427,29.9404524 154.754427,31.1865783 C154.754427,32.4318685 155.883663,33.1497908 157.201243,33.1497908 C158.988852,33.1497908 160.456441,32.0541026 160.456441,30.5071012 L160.456441,29.5635223 C159.742231,29.3562526 158.781339,29.148147 157.596267,29.148147 Z M206.645088,27.6563061 C204.894981,28.2990096 204.124101,29.3746394 204.124101,30.5071012 C204.124101,31.9421101 205.252503,33.0177399 206.870935,33.0177399 C208.113511,33.0177399 209.204411,32.3558138 210.165302,31.3002424 L206.645088,27.6563061 Z M122.476627,25.4106051 C120.368999,25.4106051 118.919744,27.0913289 118.919744,29.2049791 C118.919744,31.3186292 120.463171,33.0177399 122.514963,33.0177399 C124.622592,33.0177399 126.090181,31.3378518 126.090181,29.2425885 C126.090181,27.1097157 124.528419,25.4106051 122.476627,25.4106051 Z M180.126806,25.4106051 C178.018344,25.4106051 176.569923,27.0913289 176.569923,29.2049791 C176.569923,31.3186292 178.11335,33.0177399 180.165142,33.0177399 C182.27277,33.0177399 183.740359,31.3378518 183.740359,29.2425885 C183.740359,27.1097157 182.178598,25.4106051 180.126806,25.4106051 Z M238.5837,25.4106051 C236.476072,25.4106051 235.02765,27.0913289 235.02765,29.2049791 C235.02765,31.3186292 236.570244,33.0177399 238.622036,33.0177399 C240.729664,33.0177399 242.197254,31.3378518 242.197254,29.2425885 C242.197254,27.1097157 240.635492,25.4106051 238.5837,25.4106051 Z M267.982158,25.4298277 C266.175381,25.4298277 264.462777,26.9400554 264.462777,29.2049791 C264.462777,31.4891253 266.175381,32.9985173 267.982158,32.9985173 C269.863939,32.9985173 271.407366,31.6019536 271.407366,29.2233659 C271.407366,26.9016102 269.826437,25.4298277 267.982158,25.4298277 Z M345.581051,25.3546088 C343.888448,25.3546088 342.609204,26.770395 342.420026,28.6759397 L348.687074,28.6759397 C348.537065,26.9016102 347.520336,25.3546088 345.581051,25.3546088 Z M296.817248,25.3546088 C295.123811,25.3546088 293.844567,26.770395 293.656222,28.6759397 L299.92327,28.6759397 C299.772428,26.9016102 298.755699,25.3546088 296.817248,25.3546088 Z M377.090471,25.3546088 C375.396201,25.3546088 374.116956,26.770395 373.927778,28.6759397 L380.196493,28.6759397 C380.044818,26.9016102 379.028922,25.3546088 377.090471,25.3546088 Z M207.906832,21.8811686 C206.720926,21.8811686 205.91171,22.712755 205.91171,23.8067716 C205.91171,24.5990771 206.23173,25.1841127 207.228457,26.2605783 C208.903559,25.6939295 209.769445,24.9016241 209.769445,23.730717 C209.769445,22.6550872 208.979397,21.8811686 207.906832,21.8811686 Z M172.993871,20.5982691 L172.993871,22.2021025 L171.337937,22.2021025 L171.337937,20.5982691 L172.993871,20.5982691 Z M338.863976,20.5982691 L338.863976,22.2021025 L337.207208,22.2021025 L337.207208,20.5982691 L338.863976,20.5982691 Z M188.181463,4.39863223 C191.060805,4.39863223 192.71674,6.70116535 192.71674,9.57034727 C192.71674,9.70239818 192.71674,9.85367168 192.698405,10.023332 L184.981268,10.023332 C185.188781,12.1369822 186.694706,13.3262761 188.406477,13.3262761 C189.743225,13.3262761 190.684116,12.7796856 191.474997,11.948935 L192.378386,12.7596273 C191.399159,13.8553154 190.213254,14.5916246 188.368975,14.5916246 C185.696312,14.5916246 183.513679,12.5339707 183.513679,9.49512841 C183.513679,6.66355592 185.489633,4.39863223 188.181463,4.39863223 Z M114.572813,4.39863223 C117.489657,4.39863223 119.635621,6.70116535 119.635621,9.47674157 C119.635621,12.2506463 117.471323,14.5916246 114.53531,14.5916246 C111.618466,14.5916246 109.49167,12.2882557 109.49167,9.51351524 C109.49167,6.73961055 111.6368,4.39863223 114.572813,4.39863223 Z M226.668808,4.39863223 C228.513087,4.39863223 229.66149,5.17255081 230.564878,6.13618808 L229.60482,7.15415009 C228.833106,6.34345785 227.96722,5.68236758 226.650473,5.68236758 C224.67452,5.68236758 223.168595,7.36225562 223.168595,9.47674157 C223.168595,11.6087786 224.712022,13.2886666 226.743812,13.2886666 C227.986388,13.2886666 228.946447,12.6660216 229.71816,11.835271 L230.639883,12.703631 C229.66149,13.7984834 228.494752,14.5916246 226.668808,14.5916246 C223.826968,14.5916246 221.681837,12.2690331 221.681837,9.51351524 C221.681837,6.73961055 223.826968,4.39863223 226.668808,4.39863223 Z M280.627928,4.39863223 C283.545606,4.39863223 285.69157,6.70116535 285.69157,9.47674157 C285.69157,12.2506463 283.527271,14.5916246 280.590426,14.5916246 C277.673581,14.5916246 275.547619,12.2882557 275.547619,9.51351524 C275.547619,6.73961055 277.692749,4.39863223 280.627928,4.39863223 Z M259.569145,4.39863223 C262.48599,4.39863223 264.63112,6.70116535 264.63112,9.47674157 C264.63112,12.2506463 262.466822,14.5916246 259.53081,14.5916246 C256.613965,14.5916246 254.487169,12.2882557 254.487169,9.51351524 C254.487169,6.73961055 256.6323,4.39863223 259.569145,4.39863223 Z M247.975106,4.39863223 C250.89195,4.39863223 253.037081,6.70116535 253.037081,9.47674157 C253.037081,12.2506463 250.872782,14.5916246 247.93677,14.5916246 C245.019926,14.5916246 242.893129,12.2882557 242.893129,9.51351524 C242.893129,6.73961055 245.03826,4.39863223 247.975106,4.39863223 Z M156.693712,0.586707169 L156.693712,14.3642964 L155.244457,14.3642964 L155.244457,12.4019198 C154.453575,13.571991 153.306005,14.5715662 151.518397,14.5715662 C149.184088,14.5715662 146.868947,12.7220178 146.868947,9.49512841 C146.868947,6.28579005 149.184088,4.39863223 151.518397,4.39863223 C153.325173,4.39863223 154.491911,5.37982058 155.244457,6.47550875 L155.244457,0.586707169 L156.693712,0.586707169 Z M136.385808,4.4738511 C139.040136,4.4738511 140.526894,5.83364108 140.526894,8.400276 L140.526894,14.3642964 L139.133475,14.3642964 L139.133475,12.8916782 C138.456768,13.7792608 137.326699,14.5715662 135.614928,14.5715662 C133.808151,14.5715662 131.982207,13.5527684 131.982207,11.5143371 C131.982207,9.43829637 133.675643,8.34344397 136.141627,8.34344397 C137.384202,8.34344397 138.268423,8.5131043 139.133475,8.75881927 L139.133475,8.4194986 C139.133475,6.66355592 138.06091,5.75758644 136.235799,5.75758644 C135.087396,5.75758644 134.184007,6.06013345 133.280619,6.47550875 L132.848093,5.28621487 C133.920658,4.7956207 134.974889,4.4738511 136.385808,4.4738511 Z M215.038099,0.963637273 C216.958216,0.963637273 218.331633,1.51106348 219.668381,2.58669329 L218.802495,3.73837773 C217.579087,2.73796679 216.35568,2.30420465 215.000597,2.30420465 C213.287993,2.30420465 212.19626,3.24694779 212.19626,4.45546427 C212.19626,5.71997701 212.873801,6.41784095 215.772311,7.04132179 C218.708323,7.68318946 220.063405,8.75881927 220.063405,10.7972506 C220.063405,13.0813969 218.181624,14.5531794 215.564798,14.5531794 C213.475504,14.5531794 211.763733,13.8553154 210.182804,12.4386934 L211.10536,11.3446768 C212.478777,12.5899669 213.796357,13.212612 215.621468,13.212612 C217.390743,13.212612 218.55748,12.2882557 218.55748,10.9476883 C218.55748,9.70239818 217.899107,9.00369847 215.133105,8.4194986 C212.102087,7.75840833 210.709502,6.77721999 210.709502,4.58751517 C210.709502,2.47386498 212.534613,0.963637273 215.038099,0.963637273 Z M199.472984,4.39863223 C201.825628,4.39863223 203.199045,5.98407881 203.199045,8.30583453 L203.199045,14.3642964 L201.750623,14.3642964 L201.750623,8.6643778 C201.750623,6.85243885 200.771397,5.71997701 199.058793,5.71997701 C197.384524,5.71997701 196.141115,6.94688032 196.141115,8.77804187 L196.141115,14.3642964 L194.692693,14.3642964 L194.692693,4.605902 L196.141115,4.605902 L196.141115,6.30584841 C196.781987,5.24860544 197.797882,4.39863223 199.472984,4.39863223 Z M182.891974,4.43624167 L182.891974,6.00330141 L182.778634,6.00330141 C180.652671,6.00330141 178.920066,7.53191596 178.920066,10.4763167 L178.920066,14.3642964 L177.471644,14.3642964 L177.471644,4.605902 L178.920066,4.605902 L178.920066,7.15415009 C179.635943,5.53192984 181.046862,4.3610228 182.891974,4.43624167 Z M233.915083,0.586707169 L233.915083,6.30584841 C234.555122,5.24860544 235.571017,4.39863223 237.246952,4.39863223 C239.598762,4.39863223 240.972179,5.98407881 240.972179,8.30583453 L240.972179,14.3642964 L239.523758,14.3642964 L239.523758,8.6643778 C239.523758,6.85243885 238.544531,5.71997701 236.83276,5.71997701 C235.157658,5.71997701 233.915083,6.94688032 233.915083,8.77804187 L233.915083,14.3642964 L232.465828,14.3642964 L232.465828,0.586707169 L233.915083,0.586707169 Z M170.301207,1.15252021 C172.898032,1.15252021 174.591469,2.43625555 174.591469,4.45546427 C174.591469,6.19218435 173.537238,7.07893122 172.502175,7.53191596 C174.06477,8.00412329 175.32568,8.91009277 175.32568,10.7404186 C175.32568,13.0245648 173.424731,14.3642964 170.545389,14.3642964 L164.691699,14.3642964 L164.691699,1.15252021 L170.301207,1.15252021 Z M144.629644,0.586707169 L144.629644,14.3642964 L143.181222,14.3642964 L143.181222,0.586707169 L144.629644,0.586707169 Z M126.466871,4.39863223 C128.819514,4.39863223 130.193764,5.98407881 130.193764,8.30583453 L130.193764,14.3642964 L128.744509,14.3642964 L128.744509,8.6643778 C128.744509,6.85243885 127.766116,5.71997701 126.053512,5.71997701 C124.37841,5.71997701 123.135834,6.94688032 123.135834,8.77804187 L123.135834,14.3642964 L121.687413,14.3642964 L121.687413,4.605902 L123.135834,4.605902 L123.135834,6.30584841 C123.775873,5.24860544 124.791769,4.39863223 126.466871,4.39863223 Z M291.224407,0.510652536 C291.901948,0.510652536 292.353642,0.586707169 292.824504,0.756367504 L292.824504,2.02088025 C292.296972,1.86960675 291.901948,1.77600104 291.412752,1.77600104 C290.283516,1.77600104 289.719315,2.45464238 289.719315,3.85120603 L289.719315,4.6443472 L292.805337,4.6443472 L292.805337,5.89047311 L289.73765,5.89047311 L289.73765,14.3642964 L288.288395,14.3642964 L288.288395,5.89047311 L286.951647,5.89047311 L286.951647,4.62596037 L288.288395,4.62596037 L288.288395,3.77598716 C288.288395,1.64311438 289.36096,0.510652536 291.224407,0.510652536 Z M268.263008,0.586707169 L268.263008,14.3642964 L266.814587,14.3642964 L266.814587,0.586707169 L268.263008,0.586707169 Z M100.757804,1.15252021 C104.898057,1.15252021 107.759064,4.00247953 107.759064,7.73918573 C107.759064,11.4767277 104.898057,14.3642964 100.757804,14.3642964 L96.1841925,14.3642964 L96.1841925,1.15252021 L100.757804,1.15252021 Z M136.291636,9.41907377 C134.466525,9.41907377 133.450629,10.2122149 133.450629,11.4583409 C133.450629,12.703631 134.579031,13.4207175 135.896612,13.4207175 C137.685054,13.4207175 139.153477,12.3258651 139.153477,10.778028 L139.153477,9.83444908 C138.4376,9.62717931 137.477541,9.41907377 136.291636,9.41907377 Z M247.93677,5.68236758 C245.829142,5.68236758 244.379887,7.36225562 244.379887,9.47674157 C244.379887,11.5903918 245.923314,13.2886666 247.975106,13.2886666 C250.082734,13.2886666 251.550323,11.6087786 251.550323,9.51351524 C251.550323,7.38147822 249.988562,5.68236758 247.93677,5.68236758 Z M114.53531,5.68236758 C112.426849,5.68236758 110.978427,7.36225562 110.978427,9.47674157 C110.978427,11.5903918 112.521854,13.2886666 114.572813,13.2886666 C116.681274,13.2886666 118.148864,11.6087786 118.148864,9.51351524 C118.148864,7.38147822 116.587102,5.68236758 114.53531,5.68236758 Z M259.53081,5.68236758 C257.423181,5.68236758 255.973926,7.36225562 255.973926,9.47674157 C255.973926,11.5903918 257.517354,13.2886666 259.569145,13.2886666 C261.676774,13.2886666 263.144363,11.6087786 263.144363,9.51351524 C263.144363,7.38147822 261.582601,5.68236758 259.53081,5.68236758 Z M280.590426,5.68236758 C278.482797,5.68236758 277.034376,7.36225562 277.034376,9.47674157 C277.034376,11.5903918 278.57697,13.2886666 280.627928,13.2886666 C282.73639,13.2886666 284.203979,11.6087786 284.203979,9.51351524 C284.203979,7.38147822 282.642217,5.68236758 280.590426,5.68236758 Z M151.781746,5.70159018 C149.899131,5.70159018 148.356537,7.09815382 148.356537,9.47674157 C148.356537,11.7976615 149.936634,13.2702798 151.781746,13.2702798 C153.588523,13.2702798 155.301127,11.7600521 155.301127,9.47674157 C155.301127,7.21181789 153.588523,5.70159018 151.781746,5.70159018 Z M170.319542,8.36266656 L166.160122,8.36266656 L166.160122,13.0245648 L170.582891,13.0245648 C172.578013,13.0245648 173.819755,12.1369822 173.819755,10.6459771 C173.819755,9.19341717 172.615515,8.36266656 170.319542,8.36266656 Z M100.757804,2.53069702 L97.6709497,2.53069702 L97.6709497,12.9869554 L100.757804,12.9869554 C104.088841,12.9869554 106.215637,10.7220317 106.215637,7.77679516 C106.215637,4.83323014 104.088841,2.53069702 100.757804,2.53069702 Z M188.143961,5.62553554 C186.449691,5.62553554 185.169613,7.04132179 184.981268,8.9477022 L191.248317,8.9477022 C191.098308,7.17337269 190.081579,5.62553554 188.143961,5.62553554 Z M170.168699,2.49225182 L166.160122,2.49225182 L166.160122,7.04132179 L170.056193,7.04132179 C171.843801,7.04132179 173.085544,6.22979378 173.085544,4.6635698 C173.085544,3.34222502 172.050481,2.49225182 170.168699,2.49225182 Z" id="Text" fill="#EEEFF2"></path><path d="M52.9073896,7.81597009e-14 C59.7003034,7.81597009e-14 64.0697362,2.85998851 67.0140822,6.9594168 L60.0803265,12.3459235 C58.1793774,9.96315692 55.9950777,8.43704967 52.8132172,8.43704967 C48.1579336,8.43704967 44.8819007,12.3943979 44.8819007,17.256044 L44.8819007,17.3513213 C44.8819007,22.356719 48.1579336,26.2655929 52.8132172,26.2655929 C56.280095,26.2655929 58.3218861,24.6450441 60.3170076,22.2138032 L67.2515967,27.1715623 C64.1172391,31.5091837 59.8894816,34.7034783 52.5273664,34.7034783 C43.0292878,34.7034783 35.3821553,27.4105912 35.3821553,17.4474343 L35.3821553,17.3513213 C35.3821553,7.62719319 42.8384429,7.81597009e-14 52.9073896,7.81597009e-14 Z M9.35723667,0.667776393 L9.35723667,19.2108988 C9.35723667,24.0257421 11.7790509,26.3132315 15.4834432,26.3132315 C19.1878355,26.3132315 21.6113165,24.1210194 21.6113165,19.4490919 L21.6113165,0.667776393 L30.9668864,0.667776393 L30.9668864,19.1624244 C30.9668864,29.9362736 24.8406799,34.6558397 15.3884374,34.6558397 C5.93702833,34.6558397 3.19744231e-14,29.8409964 3.19744231e-14,19.4014533 L3.19744231e-14,0.667776393 L9.35723667,0.667776393 Z M81.5924703,0.667776393 L81.5924703,34.0365377 L72.3310728,34.0365377 L72.3310728,0.667776393 L81.5924703,0.667776393 Z" id="UCI" fill="#EEEFF2"></path></g></g></svg> 